<svg width="28" height="28" viewBox="0 0 28 28" fill="none" xmlns="http://www.w3.org/2000/svg">
<path d="M13.5822 0.379028C6.15639 0.379028 0.143066 6.40581 0.143066 13.8317C0.143066 21.2575 6.15639 27.2843 13.5822 27.2843C21.0215 27.2843 27.0483 21.2575 27.0483 13.8317C27.0483 6.40581 21.0215 0.379028 13.5822 0.379028ZM13.5957 24.5938C7.64963 24.5938 2.83359 19.7777 2.83359 13.8317C2.83359 7.8856 7.64963 3.06955 13.5957 3.06955C19.5418 3.06955 24.3578 7.8856 24.3578 13.8317C24.3578 19.7777 19.5418 24.5938 13.5957 24.5938ZM14.2683 7.10534H12.2504V15.1769L19.3131 19.4145L20.322 17.7598L14.2683 14.168V7.10534Z" fill="#079C49"/>
</svg>
